<svg xmlns="http://www.w3.org/2000/svg" xmlns:xlink="http://www.w3.org/1999/xlink"  xml:space="preserve">
    <symbol id="reply" viewBox="0 0 511.63 511.631">
        <g>
            <path fill="currentColor" d="M496.5,233.842c-30.841-76.706-114.112-115.06-249.823-115.06h-63.953V45.693c0-4.952-1.809-9.235-5.424-12.85
            c-3.617-3.617-7.896-5.426-12.847-5.426c-4.952,0-9.235,1.809-12.85,5.426L5.424,179.021C1.809,182.641,0,186.922,0,191.871
            c0,4.948,1.809,9.229,5.424,12.847L151.604,350.9c3.619,3.613,7.902,5.428,12.85,5.428c4.947,0,9.229-1.814,12.847-5.428
            c3.616-3.614,5.424-7.898,5.424-12.848v-73.094h63.953c18.649,0,35.349,0.568,50.099,1.708c14.749,1.143,29.413,3.189,43.968,6.143
            c14.564,2.95,27.224,6.991,37.979,12.135c10.753,5.144,20.794,11.756,30.122,19.842c9.329,8.094,16.943,17.7,22.847,28.839
            c5.896,11.136,10.513,24.311,13.846,39.539c3.326,15.229,4.997,32.456,4.997,51.675c0,10.466-0.479,22.176-1.428,35.118
            c0,1.137-0.236,3.375-0.715,6.708c-0.473,3.333-0.712,5.852-0.712,7.562c0,2.851,0.808,5.232,2.423,7.136
            c1.622,1.902,3.86,2.851,6.714,2.851c3.046,0,5.708-1.615,7.994-4.853c1.328-1.711,2.561-3.806,3.71-6.283
            c1.143-2.471,2.43-5.325,3.854-8.562c1.431-3.237,2.43-5.513,2.998-6.848c24.17-54.238,36.258-97.158,36.258-128.756
            C511.63,291.039,506.589,259.344,496.5,233.842z"></path>
        </g>
    </symbol>
              
    <symbol id="delete" viewBox="0 0 63 80.5">
        <g>
            <path fill="currentColor" d="M1.3,19.3L1.3,19.3L4.6,22v52.2c0,2.6,2.1,4.6,4.6,4.6h44.1c2.6,0,4.6-2.1,4.6-4.6V22l3.3-2.8h0v-4.6H1.3
            V19.3z M41.8,26.5h5.6v44.9h-5.6V26.5z M28.5,26.5h5.6v44.9h-5.6V26.5z M15.2,26.5h5.6v44.9h-5.6V26.5z"/>
            <path fill="currentColor" d="M60.3,8.1H40.8V3.5c0-1-0.8-1.9-1.9-1.9H23.7c-1,0-1.9,0.8-1.9,1.9v4.6H2.3c-0.6,0-1.1,0.5-1.1,1.1v3.6
            h60.2V9.2C61.4,8.6,60.9,8.1,60.3,8.1z M37.3,7h-12V5.7c0-0.3,0.3-0.6,0.6-0.6h10.8c0.3,0,0.6,0.3,0.6,0.6V7z"/>
        </g>
    </symbol>

    <symbol id="edit" viewBox="0 0 32 32" fill="currentColor" stroke="currentColor" stroke-linecap="round" stroke-linejoin="round" stroke-width="3">
        <g>
            <path d="M30 7 L25 2 5 22 3 29 10 27 Z M21 6 L26 11 Z M5 22 L10 27 Z"/>
        </g>
    </symbol>

    <symbol id="plus"  viewBox="0 0 24 24" fill="none" stroke="currentColor" stroke-width="4" stroke-linecap="round" stroke-linejoin="round">
        <line x1="12" y1="5" x2="12" y2="19"></line>
        <line x1="5" y1="12" x2="19" y2="12"></line>
    </symbol>

    <symbol id="minus"   viewBox="0 0 24 24" fill="none" stroke="currentColor" stroke-width="4" stroke-linecap="round" stroke-linejoin="round">
        <line x1="5" y1="12" x2="19" y2="12"></line>
    </symbol>
</svg>
